<svg width="449" height="276" viewBox="0 0 449 276" fill="none" xmlns="http://www.w3.org/2000/svg">
<path d="M190.047 252.611C189.092 252.916 188.164 253.298 187.27 253.751L186.535 254.052L185.759 254.371L184.35 255.356C182.254 256.96 180.299 258.731 178.507 260.65C176.618 262.556 174.735 264.595 173.066 266.457C171.396 268.318 169.793 270.107 168.919 271.234L167.282 273.173L167.894 272.922C168.303 272.754 169.017 272.868 169.832 272.76C171.461 272.544 173.709 272.209 176.227 271.718L178.11 271.307L180.125 270.751C181.391 270.232 182.697 269.695 184.099 269.391C186.66 268.463 189.073 267.167 191.254 265.55C194.561 263.013 197.003 259.576 198.24 255.716C198.816 254.099 199.188 252.428 199.346 250.739C197.789 250.546 196.2 250.602 194.643 250.905C193.05 251.289 191.506 251.862 190.047 252.611Z" fill="#75161E"/>
<path d="M189.835 231.203C188.072 230.003 186.19 229.003 184.221 228.221C183.264 227.8 182.282 227.439 181.283 227.141L179.847 226.683L178.468 226.249C176.985 225.819 175.483 225.466 173.968 225.191L172.182 224.781C172.182 224.781 172.517 225.596 173.069 226.941C173.816 228.66 174.671 230.329 175.628 231.938C176.846 234.061 178.207 236.096 179.7 238.03C181.195 239.884 182.903 241.55 184.785 242.99C185.218 243.322 185.669 243.63 186.134 243.913C186.337 244.056 186.556 244.174 186.787 244.264L187.439 244.615C188.298 244.955 189.174 245.247 190.062 245.491C190.863 245.664 191.672 245.793 192.485 245.877C193.206 245.921 193.928 245.911 194.645 245.848C196.089 245.715 197.501 245.36 198.833 244.795C198.317 243.091 197.639 241.44 196.809 239.864C195.997 238.309 195.037 236.836 193.943 235.469C193.775 235.062 193.371 234.751 193.028 234.368C192.686 233.985 192.361 233.642 191.996 233.316C191.327 232.559 190.604 231.852 189.835 231.203Z" fill="#AD535B"/>
<path d="M155.405 249.943L154.526 249.612C153.457 249.207 152.357 248.913 151.241 248.736C150.493 248.632 149.742 248.577 148.992 248.572C148.118 248.548 147.246 248.576 146.38 248.655C144.302 248.846 142.279 249.376 140.385 250.226C139.313 250.666 138.16 251.139 136.969 251.628L133.522 253.636L130.122 255.872L126.938 258.069L121.891 261.722L119.87 263.244L122.39 263.841L125.188 264.324L126.829 264.589L128.669 264.774L132.631 264.927L134.675 264.928L135.67 264.866L136.706 264.787C139.343 264.556 141.924 263.961 144.383 263.019C148.13 261.345 151.27 258.525 153.407 254.916C154.1 253.792 154.681 252.593 155.141 251.337C155.344 250.868 155.518 250.383 155.66 249.888L155.405 249.943Z" fill="#AD535B"/>
<path d="M144.228 239.807C145.492 241.328 147.029 242.601 148.761 243.562C149.481 244 150.254 244.344 151.063 244.585C151.777 244.803 152.507 244.969 153.245 245.081C154.347 245.276 155.466 245.364 156.585 245.341L157.513 245.249L157.843 245.113C157.843 245.113 157.847 244.535 157.782 243.554C157.409 238.463 155.622 233.58 152.621 229.452C151.259 227.78 149.677 226.298 147.918 225.047C146.272 223.806 144.549 222.67 142.758 221.646C141.91 221.226 141.144 220.773 140.454 220.384L138.608 219.414L136.888 218.632C136.888 218.632 136.96 219.515 137.194 220.906C137.427 222.298 137.773 224.316 138.286 226.505C138.724 227.573 138.89 228.801 139.279 229.985C139.669 231.169 140.207 232.244 140.696 233.435C141.169 234.572 141.705 235.681 142.301 236.759C142.853 237.829 143.498 238.849 144.228 239.807Z" fill="#75161E"/>
<path d="M112.756 237.64C111.823 237.007 110.832 236.46 109.795 236.005C108.256 235.39 106.642 234.967 104.99 234.746C102.862 234.474 100.698 234.529 98.5758 234.908C97.8669 235.199 96.941 235.199 96.0819 235.361L93.3962 235.941C88.9756 237.043 84.1214 238.75 80.4515 240.019C76.7817 241.288 74.1377 242.326 74.1377 242.326C74.1377 242.326 75.5058 243.047 77.6581 244.016C80.3876 245.252 83.2263 246.25 86.1416 246.996L87.6765 247.412L88.4273 247.579L89.2197 247.728L92.4228 248.172C93.4607 248.279 94.5052 248.326 95.5508 248.313C96.5653 248.337 97.5817 248.27 98.587 248.112C102.839 247.471 106.822 245.605 110.03 242.75C111.476 241.511 112.764 240.104 113.866 238.562C113.523 238.225 113.152 237.917 112.756 237.64Z" fill="#75161E"/>
<path d="M112.359 231.693C113.28 232.236 114.244 232.666 115.232 232.974C115.62 233.084 116.012 233.169 116.404 233.231C116.797 231.547 117.026 229.804 117.087 228.031C117.259 224.246 116.622 220.38 115.227 216.741C114.622 215.236 113.873 213.794 112.993 212.442C112.584 211.763 112.144 211.106 111.673 210.475C111.197 209.834 110.757 209.178 110.261 208.594C109.517 207.576 108.719 206.605 107.873 205.688C107.77 205.435 107.483 205.258 107.324 205.077C107.164 204.896 106.934 204.647 106.774 204.466L105.817 203.383C104.594 202.065 103.758 201.276 103.758 201.276C103.758 201.276 103.438 203.72 103.333 207.207C103.303 208.105 103.302 209.04 103.332 210.012C103.504 210.433 103.366 211.031 103.356 211.527L103.471 213.054C103.616 215.169 103.913 217.285 104.36 219.38C104.515 220.162 104.705 220.937 104.93 221.705C105.164 222.427 105.453 223.132 105.794 223.81C106.556 225.689 107.63 227.421 108.954 228.909C109.969 230.013 111.118 230.952 112.359 231.693Z" fill="#AD535B"/>
<path d="M70.2138 219.172C71.1112 218.804 71.9272 218.469 72.7022 218.151C74.395 217.342 75.9754 216.315 77.4051 215.093C77.4051 215.093 77.2156 214.631 76.6372 214.035C76.0588 213.439 76.0244 213.355 75.6137 212.935C75.1879 212.445 74.717 211.998 74.2077 211.599C72.9706 210.51 71.5884 209.608 70.1046 208.919L68.7701 208.339L67.3541 207.793C66.2824 207.456 65.1895 207.2 64.0843 207.026C62.8152 206.815 61.5361 206.685 60.2543 206.637C58.9289 206.543 57.5627 206.467 56.173 206.449C53.4516 206.438 50.5844 206.536 48.0543 206.643L41.6732 207.006L39.0788 207.188C39.0788 207.188 39.7669 207.936 40.93 209.027C41.5492 209.607 42.2436 210.254 43.1121 210.976C43.9806 211.698 44.8898 212.404 45.9151 213.16C46.9405 213.916 48.0238 214.697 49.1887 215.445L50.0463 216.025L50.9682 216.529L52.8357 217.479C54.0753 218.121 55.3546 218.677 56.6649 219.143L58.575 219.732L60.4978 220.12C62.7803 220.446 65.0924 220.391 67.3429 219.958C68.3212 219.778 69.2814 219.515 70.2138 219.172Z" fill="#AD535B"/>
<path d="M75.0021 204.212C75.7586 205.578 76.6912 206.829 77.7681 207.922C78.1816 208.354 78.6192 208.757 79.0779 209.129C79.5219 209.48 79.9148 209.706 80.2173 209.921C80.5714 210.136 80.9359 210.326 81.3085 210.491C82.1439 209.001 82.8253 207.406 83.3414 205.732L83.9668 203.391C84.1713 202.532 84.3419 201.59 84.4757 200.663C84.7512 198.703 84.775 196.688 84.5464 194.674L84.2809 193.087C84.0766 192.589 84.0727 192.058 83.9419 191.53C83.6706 190.47 83.3414 189.424 82.9561 188.397C82.1561 186.448 81.2539 184.25 80.6241 182.716C80.2837 181.887 79.9433 181.057 79.4338 180.442C79.1386 179.817 78.8161 179.206 78.4674 178.61C78.0249 177.532 77.5324 176.959 77.5324 176.959L76.7145 179.039C76.2255 180.354 75.5597 182.178 74.9029 184.337C74.2749 186.61 73.7998 188.942 73.4813 191.317C73.3199 192.595 73.2148 193.801 73.1635 195.033C73.1554 196.185 73.2151 197.342 73.3422 198.497C73.4928 199.531 73.7136 200.558 74.003 201.569C74.1903 202.026 74.3775 202.482 74.5477 202.896C74.6189 203.125 74.7101 203.347 74.8201 203.56C74.8201 203.56 74.9169 204.005 75.0021 204.212Z" fill="#75161E"/>
<path d="M34.5383 186.368C35.5739 186.595 36.6285 186.732 37.6899 186.776C39.5401 186.871 41.3972 186.742 43.2202 186.393C45.0015 186.071 46.7369 185.529 48.3853 184.779C47.9754 183.406 47.3346 182.114 46.4898 180.956C46.2474 180.365 45.6136 179.843 45.1393 179.256C44.613 178.631 44.0327 178.054 43.4049 177.529C42.7034 176.894 41.9405 176.329 41.1271 175.842L39.7807 175.06L39.0357 174.722L38.2746 174.344C33.5029 172.498 28.5609 171.106 23.515 170.188L17.474 168.987L14.9781 168.585C14.9781 168.585 15.3336 169.451 16.2185 170.698C17.1033 171.946 18.2144 173.744 19.6458 175.641C21.2628 177.639 23.0294 179.513 24.9308 181.247C25.4128 181.702 25.9276 182.121 26.4712 182.501L28.059 183.644C29.0922 184.328 30.1803 184.928 31.3126 185.437C32.351 185.858 33.4322 186.17 34.5383 186.368Z" fill="#75161E"/>
<path d="M54.5801 180.189C56.0167 178.969 57.3355 177.634 58.5188 176.203C59.6727 174.804 60.7016 173.325 61.5941 171.782C62.0743 170.938 62.4846 170.066 62.8213 169.172C63.2366 168.242 63.564 167.285 63.7996 166.314C64.0624 165.334 64.2277 164.341 64.2935 163.347C64.3729 162.349 64.3532 161.348 64.3754 160.33C64.3589 158.438 64.1772 156.561 63.8321 154.718C63.6188 153.007 63.2732 151.569 63.0861 150.637C62.8991 149.705 62.6636 149.012 62.6636 149.012C62.6636 149.012 61.9917 149.638 61.0246 150.737C60.0576 151.836 58.7226 153.349 57.3282 155.194C55.7813 157.119 54.4067 159.151 53.2196 161.268C51.982 163.306 51.0098 165.458 50.3247 167.677C50.089 168.629 49.9604 169.593 49.941 170.555C49.9373 171.425 50.0137 172.289 50.1696 173.137C50.3215 173.872 50.535 174.591 50.808 175.288C50.9866 175.915 51.2344 176.519 51.5478 177.09C52.3319 178.3 53.3594 179.35 54.5801 180.189Z" fill="#AD535B"/>
<path d="M7.87762 134.612C8.38118 135.495 8.94859 136.341 9.57587 137.145C11.9216 140.695 15.4689 143.348 19.6632 144.69C21.4393 145.273 23.2928 145.645 25.183 145.797C27.1427 145.926 29.123 145.816 31.0761 145.468C31.1009 145.031 31.075 144.596 30.999 144.169C30.8689 143.068 30.659 141.979 30.3711 140.912C29.9093 139.387 29.2147 137.944 28.3089 136.628C27.2097 134.885 25.8062 133.343 24.1556 132.063L22.1841 130.592L21.0901 129.901C20.6965 129.683 20.3296 129.406 19.9793 129.17C18.0813 128.001 16.0366 126.846 13.9819 125.789C11.9272 124.732 9.96596 123.78 8.24483 122.919C4.81925 121.237 2.33431 120.12 2.33431 120.12C2.33431 120.12 2.58147 121.586 3.18904 123.806C3.62288 124.863 3.92336 126.213 4.40399 127.63C4.88461 129.048 5.57201 130.476 6.1894 131.98C6.69289 132.892 7.2567 133.771 7.87762 134.612Z" fill="#AD535B"/>
<path d="M48.4809 132.088L48.9771 131.059L49.4986 129.973C49.7858 129.259 50.0567 128.506 50.2863 127.77C50.516 127.033 50.7296 126.258 50.8765 125.555L51.3676 123.336C51.6269 122.083 51.8035 120.864 51.9295 119.758C52.0556 118.651 52.0716 118.691 52.1013 118.174L52.2549 116.781C52.3608 115.858 52.4164 114.932 52.4216 114.007C52.4216 114.007 50.2494 115.311 47.3188 117.477C46.5347 118.039 45.7806 118.64 45.0594 119.276C44.2618 119.924 43.4642 120.573 42.6989 121.3C41.0976 122.754 39.6058 124.317 38.2357 125.975C37.244 127.164 36.3757 128.443 35.6437 129.79C34.6916 131.461 34.0595 133.275 33.7788 135.142C33.659 136.638 33.7837 138.134 34.1483 139.576C34.3986 140.584 34.7943 141.548 35.3243 142.441C35.514 142.796 35.7341 143.135 35.9823 143.455C37.6481 142.613 39.2335 141.624 40.7174 140.502C43.8813 138.244 46.529 135.374 48.4809 132.088Z" fill="#75161E"/>
<path d="M14.0005 99.0408C15.4646 100.123 17.045 101.025 18.708 101.727C20.3194 102.398 22.003 102.856 23.7173 103.088C23.8325 102.691 23.9187 102.285 23.9754 101.874C24.1423 100.813 24.2065 99.7344 24.1672 98.6547C24.1427 96.1809 23.5777 93.7298 22.5139 91.4822C22.1167 90.5137 21.6308 89.5842 21.0629 88.7065C20.4353 87.6807 19.7362 86.702 18.971 85.7781C18.76 85.2643 18.1739 84.8122 17.7944 84.3214L16.5255 82.8564C14.839 80.9162 13.0382 79.0229 11.3566 77.3117C10.5321 76.4955 9.74563 75.6638 9.00784 74.9506C8.27005 74.2374 7.67332 73.6511 7.13091 73.0886L5.41135 71.3929C5.41135 71.3929 5.3168 72.3554 5.26462 73.8546C5.21948 74.6121 5.25546 75.5672 5.26958 76.5774C5.28369 77.5876 5.36266 78.7559 5.47975 79.9086C5.59685 81.0613 5.57508 81.1164 5.64985 81.7323C5.72462 82.3482 5.77743 83.0193 5.90652 83.659C6.0356 84.2988 6.42283 86.2181 6.7734 87.5058C7.09461 88.7511 7.49334 89.9758 7.96695 91.1724C8.47513 92.3113 9.06137 93.4134 9.72115 94.4703C10.8731 96.2399 12.3231 97.7885 14.0005 99.0408Z" fill="#75161E"/>
<path d="M47.854 92.7931C48.4845 91.9109 49.0507 90.9808 49.5484 90.0101C50.0488 89.0766 50.5322 88.1014 50.9359 87.159L52.1016 84.4474C52.4826 83.5629 52.7613 82.7689 53.0172 82.0327L53.3698 80.9656L53.6939 80.0559L54.2626 78.269L52.1134 79.1512C50.2906 79.7663 48.5096 80.4973 46.7803 81.3402C44.5522 82.3607 42.3845 83.5098 40.2873 84.7821L38.6726 85.8332L37.2284 86.96C36.3231 87.6963 35.4718 88.5 34.6811 89.3648C33.9866 90.1531 33.3536 90.9972 32.7877 91.8897C32.311 92.6769 31.9238 93.5198 31.6333 94.4024C31.1292 95.8781 30.825 97.4239 30.729 98.997C30.7161 100.088 30.8364 101.18 31.0869 102.248C31.3768 102.955 31.5644 103.412 31.5644 103.412C33.3568 103.079 35.1058 102.556 36.7838 101.852C38.4166 101.198 39.9846 100.391 41.4688 99.4433C43.2135 98.4021 44.7937 97.0993 46.1596 95.576C46.8063 94.7056 47.3734 93.7741 47.854 92.7931Z" fill="#AD535B"/>
<path d="M20.7657 55.1964C21.8483 56.6093 23.1334 57.8573 24.5808 58.9015C26.0127 59.9985 27.5819 60.9082 29.2503 61.6085C30.0738 60.3022 30.6901 58.8796 31.0774 57.3908C31.271 56.6932 31.4179 55.9842 31.5172 55.2683C31.618 54.4871 31.7024 53.6664 31.7545 52.7666C31.7775 50.7692 31.4838 48.7833 30.8841 46.8818C30.1552 44.535 29.2205 42.2577 28.0904 40.0756C26.8831 37.7045 25.7082 35.4125 24.5744 33.3348C23.4407 31.2572 22.3892 29.6081 21.5554 28.1471C20.7216 26.686 20.2852 26.0791 20.2852 26.0791C20.1789 26.2762 20.0911 26.4825 20.0231 26.6953L19.4772 28.4452C18.9703 29.9479 18.3779 32.0406 17.8428 34.3872C17.3516 36.9442 17.0363 39.5298 16.8991 42.1262C16.8345 44.6578 17.1301 47.1826 17.777 49.6262C18.0044 50.1802 18.2318 50.7342 18.443 51.2486C18.6071 51.7659 18.8135 52.2688 19.0602 52.7523C19.5499 53.6187 20.1209 54.437 20.7657 55.1964Z" fill="#AD535B"/>
<path d="M55.041 57.5717C55.4649 57.2225 55.8703 56.8494 56.2555 56.454L56.824 55.8594L57.4336 55.2481C58.878 53.7176 60.2188 52.0813 61.4468 50.3502C62.6618 48.768 63.5677 47.3642 64.2141 46.3766L64.9515 45.1452L65.2338 44.6681L64.661 44.9032L62.9115 44.9506C61.462 45.0296 59.3672 45.1671 57.0631 45.4937L53.3592 46.1368L51.473 46.5499L49.6728 47.2888C47.2706 47.9365 44.9638 48.8834 42.7993 50.1101C41.0909 51.2207 39.6102 52.6683 38.4324 54.3792C37.9294 55.0688 37.4991 55.8161 37.1486 56.6089C36.8509 57.2932 36.5982 58.0002 36.3919 58.7253C35.9267 60.2375 35.7264 61.84 35.8004 63.457C37.6867 63.6516 39.5766 63.6534 41.4437 63.4624C43.2636 63.278 45.0585 62.9381 46.8111 62.4461C48.8256 61.8981 50.7613 61.1036 52.5799 60.0782C53.4706 59.3226 54.294 58.484 55.041 57.5717Z" fill="#75161E"/>
<path d="M41.778 33.862C41.9533 34.3452 42.1607 34.8172 42.3992 35.2749L42.7627 35.3032L43.7017 34.98C44.7977 34.5986 45.8473 34.1047 46.8325 33.5068C50.1001 31.508 52.713 28.6603 54.3723 25.2893C55.151 23.8197 55.8193 22.2976 56.3718 20.7347C57.1256 18.6804 57.8022 16.444 58.4198 14.3791C59.0374 12.3142 59.5778 10.0672 60.0217 8.47302C60.94 4.89084 61.4622 2.29028 61.4622 2.29028C61.4622 2.29028 60.0836 2.97543 57.934 4.17285C56.8836 4.75145 55.6833 5.49445 54.3853 6.31792C53.009 7.23556 51.6819 8.21951 50.4088 9.26607C49.5821 9.90609 48.7974 10.5934 48.0127 11.2807L47.4234 11.8071L46.8307 12.3773L45.7781 13.572C44.4334 15.028 43.2798 16.6384 42.3432 18.3671C41.8078 19.404 41.3862 20.4924 41.0853 21.6147C40.8112 22.714 40.6324 23.8338 40.5507 24.9626C40.4043 26.762 40.4937 28.5733 40.8169 30.3537C41.0393 31.5455 41.3607 32.7187 41.778 33.862Z" fill="#75161E"/>
<path d="M259.101 252.61C260.055 252.916 260.984 253.297 261.877 253.75L262.612 254.052L263.388 254.37L264.797 255.355C266.894 256.96 268.849 258.731 270.64 260.649C272.53 262.555 274.412 264.595 276.082 266.456C277.751 268.317 279.355 270.106 280.228 271.234L281.865 273.172L281.253 272.921C280.845 272.753 280.13 272.867 279.316 272.759C277.687 272.543 275.438 272.208 272.92 271.717L271.037 271.306L269.022 270.751C267.757 270.231 266.45 269.695 265.048 269.391C262.487 268.462 260.074 267.166 257.893 265.549C254.586 263.012 252.144 259.575 250.907 255.716C250.331 254.098 249.959 252.427 249.801 250.738C251.358 250.545 252.947 250.602 254.504 250.904C256.097 251.288 257.641 251.862 259.101 252.61Z" fill="#75161E"/>
<path d="M259.312 231.203C261.075 230.003 262.958 229.003 264.926 228.221C265.884 227.8 266.865 227.439 267.864 227.141L269.3 226.683L270.679 226.249C272.162 225.819 273.664 225.466 275.179 225.191L276.965 224.781C276.965 224.781 276.63 225.596 276.078 226.941C275.332 228.66 274.477 230.329 273.519 231.938C272.301 234.061 270.941 236.096 269.448 238.03C267.952 239.884 266.244 241.55 264.362 242.99C263.929 243.322 263.479 243.63 263.013 243.913C262.81 244.056 262.591 244.174 262.361 244.264L261.708 244.615C260.849 244.955 259.973 245.247 259.085 245.491C258.284 245.664 257.475 245.793 256.662 245.877C255.941 245.921 255.219 245.911 254.502 245.848C253.058 245.715 251.646 245.36 250.314 244.795C250.831 243.091 251.509 241.44 252.338 239.864C253.15 238.309 254.111 236.836 255.205 235.469C255.372 235.062 255.777 234.751 256.119 234.368C256.461 233.985 256.786 233.642 257.151 233.316C257.821 232.559 258.543 231.852 259.312 231.203Z" fill="#AD535B"/>
<path d="M293.743 249.943L294.622 249.611C295.691 249.206 296.791 248.912 297.907 248.735C298.655 248.631 299.406 248.576 300.156 248.571C301.03 248.547 301.902 248.575 302.768 248.654C304.846 248.845 306.868 249.375 308.763 250.225C309.835 250.665 310.987 251.138 312.179 251.627L315.626 253.635L319.026 255.871L322.21 258.068L327.257 261.721L329.278 263.243L326.758 263.84L323.96 264.323L322.319 264.589L320.479 264.773L316.517 264.926L314.473 264.928L313.478 264.865L312.442 264.786C309.805 264.555 307.224 263.961 304.765 263.019C301.018 261.344 297.878 258.525 295.741 254.915C295.048 253.791 294.467 252.592 294.007 251.336C293.804 250.867 293.63 250.383 293.488 249.887L293.743 249.943Z" fill="#AD535B"/>
<path d="M304.919 239.806C303.655 241.327 302.118 242.6 300.386 243.561C299.667 243.999 298.893 244.343 298.084 244.584C297.37 244.802 296.641 244.968 295.902 245.08C294.8 245.275 293.681 245.363 292.562 245.34L291.635 245.248L291.304 245.112C291.304 245.112 291.3 244.535 291.365 243.553C291.738 238.462 293.525 233.579 296.526 229.451C297.888 227.779 299.47 226.297 301.23 225.046C302.875 223.805 304.599 222.669 306.39 221.645C307.238 221.225 308.003 220.772 308.693 220.383L310.539 219.413L312.259 218.632C312.259 218.632 312.187 219.514 311.953 220.905C311.72 222.297 311.374 224.315 310.862 226.504C310.423 227.572 310.257 228.8 309.868 229.984C309.478 231.168 308.941 232.243 308.452 233.434C307.978 234.571 307.442 235.68 306.846 236.758C306.294 237.828 305.649 238.848 304.919 239.806Z" fill="#75161E"/>
<path d="M336.391 237.639C337.324 237.007 338.315 236.459 339.352 236.004C340.891 235.389 342.505 234.966 344.157 234.745C346.285 234.474 348.449 234.528 350.571 234.907C351.28 235.198 352.206 235.198 353.065 235.361L355.751 235.94C360.171 237.042 365.026 238.749 368.695 240.018C372.365 241.287 375.009 242.325 375.009 242.325C375.009 242.325 373.641 243.046 371.489 244.016C368.759 245.252 365.921 246.249 363.005 246.996L361.47 247.411L360.72 247.578L359.927 247.728L356.724 248.171C355.686 248.278 354.642 248.325 353.596 248.313C352.582 248.336 351.565 248.269 350.56 248.112C346.308 247.471 342.325 245.604 339.117 242.749C337.671 241.51 336.383 240.104 335.281 238.562C335.624 238.225 335.995 237.916 336.391 237.639Z" fill="#75161E"/>
<path d="M336.788 231.693C335.867 232.235 334.903 232.665 333.915 232.973C333.527 233.083 333.135 233.168 332.743 233.23C332.35 231.546 332.121 229.803 332.06 228.03C331.888 224.245 332.525 220.379 333.921 216.74C334.525 215.235 335.274 213.793 336.154 212.441C336.563 211.762 337.004 211.106 337.474 210.474C337.95 209.833 338.39 209.177 338.886 208.593C339.63 207.575 340.428 206.605 341.274 205.687C341.378 205.434 341.664 205.257 341.824 205.076C341.983 204.895 342.214 204.646 342.373 204.465L343.33 203.382C344.554 202.064 345.389 201.275 345.389 201.275C345.389 201.275 345.71 203.719 345.815 207.206C345.844 208.104 345.845 209.039 345.816 210.011C345.643 210.432 345.782 211.03 345.791 211.526L345.677 213.053C345.532 215.168 345.234 217.284 344.787 219.38C344.632 220.161 344.442 220.936 344.217 221.704C343.983 222.426 343.694 223.131 343.353 223.809C342.591 225.688 341.517 227.42 340.193 228.908C339.178 230.012 338.029 230.951 336.788 231.693Z" fill="#AD535B"/>
<path d="M378.933 219.172C378.036 218.803 377.22 218.468 376.445 218.15C374.752 217.342 373.172 216.314 371.742 215.092C371.742 215.092 371.932 214.63 372.51 214.034C373.088 213.438 373.123 213.354 373.533 212.934C373.959 212.444 374.43 211.997 374.94 211.599C376.177 210.51 377.559 209.607 379.043 208.919L380.377 208.338L381.793 207.792C382.865 207.456 383.958 207.2 385.063 207.025C386.332 206.814 387.611 206.684 388.893 206.636C390.218 206.542 391.585 206.466 392.974 206.448C395.696 206.437 398.563 206.535 401.093 206.642L407.474 207.005L410.068 207.188C410.068 207.188 409.38 207.935 408.217 209.027C407.598 209.606 406.904 210.253 406.035 210.975C405.167 211.698 404.257 212.403 403.232 213.159C402.207 213.915 401.123 214.696 399.959 215.444L399.101 216.024L398.179 216.528L396.312 217.478C395.072 218.12 393.793 218.676 392.482 219.143L390.572 219.732L388.649 220.119C386.367 220.445 384.055 220.391 381.804 219.958C380.826 219.778 379.866 219.515 378.933 219.172Z" fill="#AD535B"/>
<path d="M374.145 204.211C373.389 205.577 372.456 206.828 371.379 207.921C370.966 208.353 370.528 208.756 370.069 209.128C369.625 209.479 369.232 209.705 368.93 209.92C368.576 210.135 368.211 210.325 367.839 210.49C367.003 209 366.322 207.405 365.806 205.731L365.18 203.39C364.976 202.531 364.805 201.589 364.672 200.662C364.396 198.702 364.372 196.687 364.601 194.673L364.866 193.086C365.071 192.588 365.074 192.057 365.205 191.529C365.477 190.469 365.806 189.423 366.191 188.396C366.991 186.447 367.893 184.249 368.523 182.715C368.864 181.886 369.204 181.056 369.713 180.442C370.009 179.816 370.331 179.205 370.68 178.609C371.122 177.531 371.615 176.958 371.615 176.958L372.433 179.038C372.922 180.353 373.588 182.177 374.244 184.336C374.872 186.609 375.347 188.941 375.666 191.316C375.827 192.594 375.932 193.8 375.984 195.032C375.992 196.184 375.932 197.341 375.805 198.496C375.654 199.53 375.434 200.557 375.144 201.568C374.957 202.025 374.77 202.481 374.6 202.895C374.528 203.124 374.437 203.346 374.327 203.559C374.327 203.559 374.23 204.004 374.145 204.211Z" fill="#75161E"/>
<path d="M414.609 186.367C413.573 186.595 412.519 186.731 411.457 186.776C409.607 186.87 407.75 186.741 405.927 186.392C404.146 186.07 402.41 185.528 400.762 184.778C401.172 183.405 401.813 182.113 402.657 180.955C402.9 180.364 403.534 179.842 404.008 179.255C404.534 178.63 405.114 178.053 405.742 177.528C406.444 176.893 407.207 176.328 408.02 175.841L409.367 175.059L410.112 174.721L410.873 174.343C415.644 172.497 420.586 171.105 425.632 170.187L431.673 168.986L434.169 168.584C434.169 168.584 433.814 169.451 432.929 170.698C432.044 171.945 430.933 173.743 429.501 175.64C427.884 177.638 426.118 179.512 424.216 181.247C423.734 181.701 423.22 182.12 422.676 182.501L421.088 183.643C420.055 184.327 418.967 184.927 417.835 185.436C416.796 185.858 415.715 186.17 414.609 186.367Z" fill="#75161E"/>
<path d="M394.568 180.189C393.131 178.969 391.813 177.634 390.629 176.203C389.476 174.804 388.447 173.325 387.554 171.782C387.074 170.938 386.664 170.066 386.327 169.172C385.912 168.242 385.584 167.285 385.349 166.314C385.086 165.334 384.92 164.341 384.855 163.347C384.775 162.349 384.795 161.348 384.773 160.33C384.789 158.438 384.971 156.561 385.316 154.718C385.529 153.007 385.875 151.569 386.062 150.637C386.249 149.705 386.485 149.012 386.485 149.012C386.485 149.012 387.157 149.638 388.124 150.737C389.091 151.836 390.426 153.349 391.82 155.194C393.367 157.119 394.742 159.151 395.929 161.268C397.166 163.306 398.138 165.458 398.824 167.677C399.059 168.629 399.188 169.593 399.207 170.555C399.211 171.425 399.134 172.289 398.979 173.137C398.827 173.872 398.613 174.591 398.34 175.288C398.162 175.915 397.914 176.519 397.6 177.09C396.816 178.3 395.789 179.35 394.568 180.189Z" fill="#AD535B"/>
<path d="M441.27 134.612C440.766 135.495 440.199 136.341 439.571 137.145C437.226 140.695 433.678 143.348 429.484 144.69C427.708 145.273 425.854 145.645 423.964 145.797C422.004 145.926 420.024 145.816 418.071 145.468C418.046 145.031 418.072 144.596 418.148 144.169C418.278 143.068 418.488 141.979 418.776 140.912C419.238 139.387 419.933 137.944 420.838 136.628C421.937 134.885 423.341 133.343 424.992 132.063L426.963 130.592L428.057 129.901C428.451 129.683 428.818 129.406 429.168 129.17C431.066 128.001 433.111 126.846 435.165 125.789C437.22 124.732 439.181 123.78 440.902 122.919C444.328 121.237 446.813 120.12 446.813 120.12C446.813 120.12 446.566 121.586 445.958 123.806C445.524 124.863 445.224 126.213 444.743 127.63C444.263 129.048 443.575 130.476 442.958 131.98C442.454 132.892 441.891 133.771 441.27 134.612Z" fill="#AD535B"/>
<path d="M400.666 132.087L400.17 131.058L399.649 129.972C399.361 129.258 399.091 128.505 398.861 127.769C398.631 127.033 398.418 126.257 398.271 125.555L397.78 123.335C397.52 122.082 397.344 120.863 397.218 119.757C397.092 118.651 397.076 118.69 397.046 118.173L396.892 116.78C396.786 115.857 396.731 114.931 396.726 114.006C396.726 114.006 398.898 115.31 401.828 117.476C402.612 118.038 403.367 118.639 404.088 119.275C404.885 119.924 405.683 120.572 406.448 121.299C408.05 122.753 409.541 124.316 410.912 125.974C411.903 127.164 412.772 128.442 413.504 129.789C414.456 131.461 415.088 133.274 415.368 135.141C415.488 136.637 415.364 138.133 414.999 139.575C414.749 140.583 414.353 141.547 413.823 142.44C413.633 142.796 413.413 143.135 413.165 143.454C411.499 142.612 409.914 141.623 408.43 140.501C405.266 138.243 402.618 135.373 400.666 132.087Z" fill="#75161E"/>
<path d="M435.147 99.0408C433.683 100.123 432.102 101.025 430.439 101.727C428.828 102.398 427.144 102.856 425.43 103.088C425.315 102.691 425.229 102.285 425.172 101.874C425.005 100.813 424.941 99.7344 424.98 98.6547C425.005 96.1809 425.569 93.7298 426.633 91.4822C427.031 90.5137 427.516 89.5842 428.084 88.7065C428.712 87.6807 429.411 86.702 430.176 85.7781C430.387 85.2643 430.973 84.8122 431.353 84.3214L432.622 82.8564C434.308 80.9162 436.109 79.0229 437.791 77.3117C438.615 76.4955 439.402 75.6638 440.139 74.9506C440.877 74.2374 441.474 73.6511 442.016 73.0886L443.736 71.3929C443.736 71.3929 443.83 72.3554 443.883 73.8546C443.928 74.6121 443.892 75.5672 443.878 76.5774C443.864 77.5876 443.785 78.7559 443.667 79.9086C443.55 81.0613 443.572 81.1164 443.497 81.7323C443.423 82.3482 443.37 83.0193 443.241 83.659C443.112 84.2988 442.724 86.2181 442.374 87.5058C442.053 88.7511 441.654 89.9758 441.18 91.1724C440.672 92.3113 440.086 93.4134 439.426 94.4703C438.274 96.2399 436.824 97.7885 435.147 99.0408Z" fill="#75161E"/>
<path d="M401.294 92.7921C400.664 91.9099 400.097 90.9798 399.6 90.0092C399.099 89.0756 398.616 88.1004 398.212 87.158L397.047 84.4465C396.666 83.5619 396.387 82.7679 396.131 82.0318L395.778 80.9646L395.454 80.0549L394.886 78.268L397.035 79.1502C398.858 79.7653 400.639 80.4964 402.368 81.3392C404.596 82.3598 406.764 83.5088 408.861 84.7811L410.476 85.8322L411.92 86.959C412.825 87.6954 413.676 88.499 414.467 89.3639C415.162 90.1522 415.795 90.9963 416.361 91.8887C416.837 92.6759 417.224 93.5188 417.515 94.4014C418.019 95.8771 418.323 97.4229 418.419 98.9961C418.432 100.087 418.312 101.179 418.061 102.247C417.771 102.954 417.584 103.411 417.584 103.411C415.791 103.078 414.042 102.555 412.364 101.851C410.732 101.197 409.164 100.391 407.679 99.4423C405.935 98.4011 404.354 97.0983 402.989 95.5751C402.342 94.7046 401.775 93.7731 401.294 92.7921Z" fill="#AD535B"/>
<path d="M428.382 55.1956C427.299 56.6086 426.014 57.8566 424.566 58.9007C423.134 59.9977 421.565 60.9075 419.897 61.6078C419.073 60.3015 418.457 58.8788 418.07 57.39C417.876 56.6925 417.729 55.9835 417.63 55.2675C417.529 54.4864 417.445 53.6657 417.393 52.7658C417.37 50.7684 417.663 48.7826 418.263 46.881C418.992 44.5343 419.927 42.257 421.057 40.0749C422.264 37.7038 423.439 35.4118 424.573 33.3341C425.707 31.2564 426.758 29.6073 427.592 28.1463C428.426 26.6853 428.862 26.0784 428.862 26.0784C428.968 26.2755 429.056 26.4818 429.124 26.6946L429.67 28.4445C430.177 29.9472 430.769 32.0399 431.304 34.3864C431.796 36.9435 432.111 39.5291 432.248 42.1255C432.313 44.657 432.017 47.1819 431.37 49.6255C431.143 50.1795 430.915 50.7335 430.704 51.2479C430.54 51.7652 430.334 52.2681 430.087 52.7516C429.597 53.618 429.026 54.4363 428.382 55.1956Z" fill="#AD535B"/>
<path d="M394.106 57.5707C393.682 57.2215 393.277 56.8484 392.892 56.453L392.323 55.8585L391.714 55.2471C390.269 53.7166 388.928 52.0803 387.7 50.3492C386.485 48.767 385.58 47.3632 384.933 46.3756L384.196 45.1442L383.913 44.6671L384.486 44.9022L386.236 44.9496C387.685 45.0286 389.78 45.1661 392.084 45.4927L395.788 46.1358L397.674 46.5489L399.474 47.2878C401.877 47.9356 404.183 48.8824 406.348 50.1091C408.056 51.2197 409.537 52.6673 410.715 54.3782C411.218 55.0678 411.648 55.8151 411.999 56.6079C412.296 57.2922 412.549 57.9993 412.755 58.7243C413.22 60.2365 413.421 61.839 413.347 63.456C411.461 63.6506 409.571 63.6524 407.703 63.4615C405.884 63.277 404.089 62.9371 402.336 62.4451C400.322 61.8971 398.386 61.1026 396.567 60.0772C395.677 59.3216 394.853 58.483 394.106 57.5707Z" fill="#75161E"/>
<path d="M405.583 33.8622C405.408 34.3455 405.2 34.8174 404.962 35.2751L404.598 35.3034L403.659 34.9803C402.563 34.5989 401.514 34.105 400.529 33.507C397.261 31.5082 394.648 28.6606 392.989 25.2895C392.21 23.8199 391.542 22.2978 390.989 20.7349C390.235 18.6806 389.559 16.4442 388.941 14.3793C388.324 12.3144 387.783 10.0675 387.339 8.47327C386.421 4.89109 385.899 2.29053 385.899 2.29053C385.899 2.29053 387.277 2.97567 389.427 4.17309C390.477 4.75169 391.678 5.4947 392.976 6.31816C394.352 7.2358 395.679 8.21976 396.952 9.26632C397.779 9.90634 398.564 10.5936 399.348 11.2809L399.938 11.8074L400.53 12.3775L401.583 13.5722C402.928 15.0282 404.081 16.6386 405.018 18.3673C405.553 19.4042 405.975 20.4926 406.276 21.615C406.55 22.7142 406.729 23.834 406.81 24.9629C406.957 26.7622 406.867 28.5735 406.544 30.354C406.322 31.5458 406 32.719 405.583 33.8622Z" fill="#AD535B"/>
<path d="M124.459 155.055C98.2097 155.055 87.991 135.614 87.991 119.488C87.991 104.874 98.4739 84.8091 124.735 84.8091C146.145 84.8091 161.023 97.8016 161.023 118.767C161.026 124.536 159.624 130.219 156.938 135.324C154.251 140.429 150.362 144.803 145.605 148.067L163.617 157.289C182.517 166.967 194.441 167.952 200.529 167.952C206.425 168.034 212.286 167.033 217.82 164.998C218.249 164.795 218.7 164.646 219.165 164.553C219.271 164.553 219.375 164.574 219.473 164.615C219.571 164.655 219.659 164.714 219.734 164.789C219.809 164.864 219.868 164.953 219.908 165.05C219.949 165.148 219.97 165.252 219.97 165.358C219.97 165.898 219.525 166.163 218.901 166.427C209.876 170.807 199.993 173.136 189.962 173.247C176.429 173.247 166.847 169.753 152.053 161.059L137.992 152.81C133.637 154.303 129.063 155.062 124.459 155.055ZM148.475 121.181C148.475 99.5067 135.038 89.1079 122.67 89.1079C110.938 89.1079 100.455 96.6369 100.455 117.423C100.455 138.749 113.352 150.576 127.773 150.576C134.942 150.636 148.475 147.442 148.475 121.181Z" fill="#75161E"/>
<path d="M203.747 127.821C203.747 136.059 203.747 143.131 204.191 147.034C204.467 149.544 205.007 151.513 207.685 151.837C209.202 152.05 210.729 152.17 212.26 152.197C213.245 152.197 213.689 152.462 213.689 152.918C213.689 153.374 212.981 153.806 211.996 153.806C206.076 153.806 200.432 153.542 197.923 153.542C195.857 153.542 190.214 153.806 186.635 153.806C185.435 153.806 184.846 153.542 184.846 152.918C184.846 152.293 185.194 152.197 186.275 152.197C187.358 152.196 188.437 152.076 189.493 151.837C191.282 151.477 191.823 149.508 192.087 146.914C192.531 143.143 192.531 136.107 192.531 127.833V91.0772C189.133 91.1733 183.573 91.3534 179.191 91.4374C173.991 91.6176 171.842 92.0618 170.497 94.0432C169.815 94.9942 169.3 96.0539 168.972 97.1772C168.792 97.8857 168.527 98.2459 167.987 98.2459C167.447 98.2459 167.183 97.8016 167.183 96.817C167.183 95.376 168.876 87.2107 169.056 86.5142C169.332 85.3134 169.596 84.8091 170.137 84.8091C170.857 84.8091 171.746 85.7097 173.991 85.8898C176.585 86.154 179.995 86.3341 182.949 86.3341H218.432C220.501 86.3291 222.568 86.1806 224.616 85.8898C225.407 85.6902 226.209 85.5378 227.018 85.4335C227.642 85.4335 227.738 85.9739 227.738 87.3187C227.738 89.204 227.462 95.376 227.462 97.7056C227.378 98.6062 227.198 99.1465 226.658 99.1465C226.117 99.1465 225.769 98.7022 225.673 97.3573C225.673 97.0812 225.589 96.6369 225.589 96.3727C225.409 94.0432 222.983 91.5695 215.01 91.3534C212.681 91.2573 209.006 91.1733 203.723 91.0772L203.747 127.821Z" fill="#75161E"/>
<path d="M244.057 112.043C244.057 98.4257 244.057 95.9161 243.877 93.0462C243.697 90.1763 242.988 88.5673 240.022 87.9428C238.869 87.7432 237.699 87.6548 236.528 87.6787C235.543 87.6787 235.015 87.4986 235.015 86.8741C235.015 86.2497 235.64 86.0576 236.984 86.0576C241.728 86.0576 247.371 86.3338 249.881 86.3338C252.655 86.3338 258.286 86.0576 263.678 86.0576C274.881 86.0576 289.843 86.0576 299.606 96.2763C305.404 102.434 308.529 110.636 308.299 119.091C308.434 128.38 304.93 137.352 298.537 144.092C294.418 148.307 285.1 154.671 268.517 154.671C265.287 154.671 261.625 154.395 258.214 154.13C254.804 153.866 251.67 153.59 249.437 153.59C248.452 153.59 246.483 153.59 244.333 153.674C242.184 153.758 239.938 153.854 238.149 153.854C236.948 153.854 236.348 153.59 236.348 152.966C236.348 152.341 236.708 152.245 237.789 152.245C238.872 152.246 239.951 152.125 241.007 151.885C242.808 151.525 243.253 149.555 243.613 146.962C244.057 143.191 244.057 136.155 244.057 127.881V112.043ZM255.26 121.901C255.26 131.399 255.345 138.304 255.441 139.997C255.525 142.243 255.705 145.821 256.425 146.806C257.626 148.511 261.084 150.408 268.157 150.408C277.295 150.408 283.395 148.619 288.762 143.96C294.502 139.024 296.291 130.871 296.291 121.649C296.291 110.266 291.548 102.917 287.694 99.2423C279.444 91.3651 269.238 90.2844 262.249 90.2844C260.29 90.2583 258.334 90.4679 256.425 90.9088C256.063 91.036 255.757 91.2856 255.56 91.6145C255.363 91.9433 255.286 92.3309 255.344 92.71C255.26 95.748 255.26 103.517 255.26 110.626V121.901Z" fill="#75161E"/>
<path d="M320.752 152.726C319.311 152.101 319.047 151.645 319.047 149.676C319.047 144.752 319.407 139.373 319.491 137.944C319.575 136.515 319.852 135.614 320.572 135.614C321.293 135.614 321.461 136.419 321.461 137.139C321.542 138.687 321.812 140.22 322.265 141.702C324.247 148.331 329.53 150.756 335.078 150.756C343.147 150.756 347.086 145.293 347.086 140.538C347.086 136.143 345.741 132.024 338.308 126.2L334.189 123.018C324.331 115.309 320.98 109.041 320.98 101.776C320.98 91.9176 329.218 84.845 341.67 84.845C344.435 84.849 347.195 85.09 349.919 85.5654C351.432 85.8296 352.597 86.0938 353.594 86.37C354.398 86.5501 354.795 86.8143 354.795 87.4387C354.795 88.6394 354.434 91.2091 354.434 98.2458C354.434 100.215 354.17 100.936 353.45 100.936C352.729 100.936 352.549 100.395 352.549 99.3145C352.382 97.1563 351.57 95.0981 350.22 93.4066C348.887 91.7015 346.281 89.0117 340.457 89.0117C333.829 89.0117 329.794 92.8662 329.794 98.2458C329.794 102.364 331.86 105.45 339.292 111.142L341.802 113.027C352.609 121.181 356.5 127.365 356.5 135.842C356.564 138.948 355.823 142.018 354.351 144.753C352.878 147.489 350.722 149.797 348.094 151.453C343.803 154.03 338.855 155.306 333.853 155.127C329.363 155.287 324.893 154.468 320.752 152.726Z" fill="#75161E"/>
</svg>
